<svg height="504pt" viewBox="-90 0 504 504.1" width="504pt" xmlns="http://www.w3.org/2000/svg"><path d="m151.847656 20.304688c-10.933594-10.9375-28.664062-10.9375-39.597656 0-10.933594 10.933593-10.933594 28.660156 0 39.597656 10.933594 10.933594 28.664062 10.933594 39.597656 0 10.933594-10.9375 10.933594-28.664063 0-39.597656zm0 0" fill="#ffde01"/><path d="m132.050781 12.101562c-7.199219 0-14.402343 2.796876-20 8.398438-10.800781 10.800781-10.800781 28.800781 0 39.601562 5.597657 5.597657 12.800781 8.398438 20 8.398438zm0 0" fill="#fff"/><path d="m176.050781 100.101562h-88c-11.199219 0-20 8.796876-20 20v84l17.597657 41.199219 23.203124 158.800781c2 17.597657-4 35.597657-16.800781 48h80c-12.800781-12.800781-18.800781-30.402343-16.800781-48l23.199219-158.800781 17.601562-41.199219v-84c0-11.203124-8.800781-20-20-20zm0 0" fill="#ffde01"/><path d="m132.050781 452.101562v-352h-44c-11.199219 0-20 8.796876-20 20v84l17.597657 41.199219 23.203124 158.800781c2 17.597657-4 35.597657-16.800781 48zm0 0" fill="#fff"/><g fill="#444b54"><path d="m196.050781 212.101562h-.402343l-60-2.800781c-6.796876-.402343-11.597657-6-11.597657-12.402343.398438-6.398438 5.597657-11.597657 12-11.597657h.398438l47.601562 2.398438v-67.597657c0-4.402343-3.601562-8-8-8h-7.199219c-14.402343 0-27.203124-8.402343-32.800781-21.601562-5.601562-13.199219-3.199219-28.398438 7.199219-38.800781 3.601562-3.597657 5.199219-8.398438 4.800781-13.199219-.402343-4.800781-3.199219-9.199219-7.199219-12-5.203124-3.601562-12.402343-3.601562-17.601562 0-4.398438 3.199219-7.199219 8.398438-7.199219 13.601562 0 6.796876-5.199219 12-12 12s-12-5.203124-12-12c0-13.203124 6.800781-25.601562 17.597657-33.203124 13.203124-9.199219 31.203124-9.199219 44.402343 0 10 6.800781 16.398438 17.601562 17.597657 29.601562 1.203124 12-3.199219 23.601562-11.597657 32-4.800781 5.199219-2.800781 10.800781-2 12.398438.800781 1.601562 3.597657 7.203124 10.800781 7.203124h7.199219c17.597657 0 32 14.398438 32 32v80c0 3.199219-1.199219 6.398438-3.601562 8.796876-2.398438 2-5.199219 3.203124-8.398438 3.203124zm0 0"/><path d="m172.050781 464.101562h-80c-6.800781 0-12-5.203124-12-12 0-6.800781 5.199219-12 12-12h57.597657c-5.199219-11.601562-7.199219-24.402343-6-37.203124l11.203124-158.398438c.398438-6.800781 6.398438-11.601562 12.796876-11.199219 6.800781.398438 11.601562 6 11.203124 12.800781l-11.203124 158.796876v.402343c-1.597657 14 3.203124 28 13.203124 38 3.597657 3.597657 4.398438 8.398438 2.796876 13.199219-2.398438 4.800781-6.796876 7.601562-11.597657 7.601562zm0 0"/><path d="m108.449219 416.101562c-6.398438 0-11.597657-4.800781-12-11.203124l-11.199219-158.796876c-.398438-6.800781 4.398438-12.402343 11.199219-12.800781 6.800781-.402343 12.402343 4.398438 12.800781 11.199219l11.199219 158.800781c.402343 6.800781-4.398438 12.398438-11.199219 12.800781 0 0-.398438 0-.800781 0zm0 0"/><path d="m68.050781 212.101562c-2 0-4.402343-.402343-6-1.601562-4-2.398438-6-6-6-10.398438v-80c0-17.601562 14.398438-32 32-32 6.800781 0 12 5.199219 12 12 0 6.796876-5.199219 12-12 12-4.402343 0-8 3.597657-8 8v60l46.398438-25.203124c6-3.199219 13.199219-1.199219 16.402343 4.800781 3.199219 6 1.199219 13.199219-4.800781 16.402343l-64 34.796876c-2 .800781-4 1.203124-6 1.203124zm0 0"/></g><path d="m52.050781 452.101562h160v40h-160zm0 0" fill="#fff"/><path d="m132.050781 452.101562h80v40h-80zm0 0" fill="#444b54"/><path d="m212.050781 504.101562h-160c-6.800781 0-12-5.203124-12-12v-40c0-6.800781 5.199219-12 12-12h160c6.800781 0 12 5.199219 12 12v40c0 6.796876-5.199219 12-12 12zm-148-24h136v-16h-136zm0 0" fill="#444b54"/><path d="m252.050781 504.101562h-240c-6.800781 0-11.9999998-5.203124-11.9999998-12 0-6.800781 5.1992188-12 11.9999998-12h240c6.800781 0 12 5.199219 12 12 0 6.796876-5.199219 12-12 12zm0 0" fill="#444b54"/><path d="m324.050781 492.101562c0 6.625-5.375 12-12 12-6.628906 0-12-5.375-12-12 0-6.628906 5.371094-12 12-12 6.625 0 12 5.371094 12 12zm0 0" fill="#444b54"/></svg>